<?xml version="1.0" standalone="no"?>
<!DOCTYPE svg PUBLIC "-//W3C//DTD SVG 20010904//EN"
 "http://www.w3.org/TR/2001/REC-SVG-20010904/DTD/svg10.dtd">
<svg version="1.0" xmlns="http://www.w3.org/2000/svg"
 width="1741.000000pt" height="1741.000000pt" viewBox="0 0 1741.000000 1741.000000"
 preserveAspectRatio="xMidYMid meet">
<metadata>
Created by potrace 1.14, written by Peter Selinger 2001-2017
</metadata>
<g transform="translate(0.000000,1741.000000) scale(0.100000,-0.100000)"
fill="#000000" stroke="none">
<path d="M8358 17405 c-1 -1 -70 -6 -153 -10 -82 -3 -152 -8 -155 -10 -3 -1
-54 -6 -115 -9 -60 -4 -112 -9 -115 -11 -3 -1 -36 -6 -75 -9 -38 -4 -81 -8
-95 -10 -14 -3 -47 -7 -75 -11 -116 -14 -331 -46 -344 -50 -7 -3 -34 -8 -59
-11 -25 -3 -49 -7 -52 -9 -4 -2 -29 -7 -56 -11 -27 -3 -51 -8 -54 -9 -3 -2
-64 -16 -135 -30 -72 -15 -182 -40 -245 -56 -63 -16 -122 -31 -130 -33 -313
-78 -918 -284 -1205 -411 -16 -7 -59 -27 -95 -43 -36 -16 -94 -42 -130 -58
-97 -42 -390 -188 -489 -243 -47 -26 -117 -65 -156 -86 -38 -21 -128 -74 -199
-117 -71 -43 -130 -78 -131 -78 -8 0 -371 -244 -373 -251 -2 -5 -8 -9 -13 -9
-6 0 -89 -60 -186 -132 -97 -73 -188 -142 -203 -153 -66 -50 -297 -244 -434
-365 -132 -116 -415 -397 -571 -565 -55 -59 -105 -113 -111 -119 -86 -92 -384
-461 -510 -631 -262 -356 -561 -840 -743 -1205 -29 -58 -57 -112 -62 -120 -4
-8 -24 -49 -43 -90 -19 -41 -50 -109 -68 -150 -203 -442 -375 -932 -508 -1445
-18 -66 -33 -129 -35 -140 -1 -11 -10 -47 -18 -80 -9 -33 -18 -71 -21 -85 -2
-14 -16 -86 -31 -160 -34 -171 -32 -163 -45 -240 -5 -36 -12 -74 -14 -85 -2
-11 -7 -42 -10 -70 -4 -27 -9 -64 -12 -81 -3 -17 -6 -46 -8 -65 -2 -19 -9 -72
-15 -119 -12 -102 -18 -153 -26 -245 -4 -38 -8 -88 -10 -110 -20 -221 -27
-927 -12 -1165 13 -188 25 -333 32 -380 2 -14 6 -56 10 -95 3 -38 8 -83 10
-100 3 -16 7 -48 10 -70 22 -159 43 -295 55 -360 5 -27 12 -66 15 -85 12 -75
89 -423 126 -570 123 -479 298 -980 499 -1425 59 -129 248 -510 288 -580 9
-16 48 -84 85 -150 75 -132 76 -134 130 -218 20 -32 37 -60 37 -62 0 -3 30
-51 68 -107 37 -57 69 -107 71 -113 2 -5 10 -18 19 -28 8 -9 20 -26 26 -36 18
-30 148 -217 178 -256 5 -5 46 -61 93 -123 112 -150 326 -415 365 -452 3 -3
35 -38 70 -79 184 -210 466 -493 720 -721 91 -81 166 -144 410 -343 76 -62
358 -267 495 -360 319 -215 581 -370 930 -547 655 -333 1252 -550 2025 -735
43 -11 278 -58 340 -69 14 -2 63 -11 110 -20 47 -9 101 -18 120 -21 19 -2 85
-11 145 -20 121 -17 154 -21 235 -30 30 -4 66 -8 80 -10 14 -2 67 -7 119 -10
52 -4 102 -8 112 -10 55 -11 368 -20 679 -19 429 0 567 7 955 49 77 8 149 17
160 19 23 4 89 13 155 21 25 3 68 10 95 15 28 5 66 11 85 14 31 5 150 27 220
41 14 3 37 7 52 10 16 3 56 12 90 20 35 8 78 17 97 20 19 3 37 8 41 10 3 2 17
6 31 8 83 16 284 70 529 142 58 17 270 86 381 124 499 172 1163 487 1609 765
142 88 151 94 170 102 8 4 17 10 20 13 3 3 78 55 168 115 132 88 350 244 397
283 6 5 47 38 93 73 153 119 226 177 256 206 6 5 49 43 96 83 189 163 502 466
670 650 47 52 94 103 105 115 11 12 45 50 75 86 30 36 58 67 61 70 15 12 217
262 279 345 25 33 48 62 51 65 4 3 19 24 35 46 16 23 75 106 130 185 126 178
247 364 347 534 43 72 82 137 87 145 5 8 30 53 55 100 25 47 50 92 55 100 19
30 207 407 240 480 18 41 49 109 67 150 127 277 327 842 423 1192 76 280 146
592 180 808 6 36 13 76 16 90 5 28 8 49 24 163 7 43 13 88 15 100 7 45 15 114
20 172 3 33 7 76 10 95 6 50 17 157 20 210 16 232 19 343 19 660 1 312 -7 572
-19 671 -2 14 -6 66 -10 115 -4 49 -8 100 -10 114 -2 14 -7 50 -10 80 -8 84
-22 188 -35 275 -5 33 -12 78 -15 100 -3 22 -13 78 -21 125 -9 47 -18 96 -20
110 -15 84 -75 370 -99 470 -21 84 -77 298 -82 310 -3 8 -7 20 -9 27 -14 69
-152 492 -208 638 -63 164 -90 233 -101 260 -8 17 -41 95 -75 175 -73 173
-273 581 -360 735 -34 61 -74 130 -88 155 -163 290 -522 819 -690 1020 -16 19
-47 58 -67 85 -21 28 -52 66 -69 85 -17 20 -49 57 -71 84 -22 27 -46 55 -54
63 -7 8 -29 33 -48 56 -126 151 -525 555 -714 722 -163 143 -204 179 -274 236
-91 75 -349 275 -427 332 -56 40 -210 148 -242 170 -10 6 -29 20 -41 30 -13 9
-27 17 -33 17 -5 0 -17 9 -27 20 -10 11 -24 20 -32 20 -7 0 -13 5 -13 10 0 6
-5 10 -11 10 -5 0 -36 17 -67 38 -70 48 -287 178 -362 218 -30 16 -57 31 -60
34 -13 14 -518 270 -615 312 -33 14 -98 43 -145 63 -47 21 -99 44 -116 51
-198 86 -568 218 -854 305 -142 43 -544 149 -620 163 -14 2 -45 9 -70 15 -25
5 -61 13 -80 16 -19 3 -42 8 -50 10 -8 2 -28 7 -45 10 -16 2 -55 9 -85 15 -30
5 -68 12 -85 15 -67 11 -212 34 -250 39 -22 3 -71 10 -110 15 -38 5 -99 12
-135 16 -36 3 -81 8 -100 10 -48 7 -143 15 -355 31 -63 5 -862 14 -867 9z"/>
</g>
</svg>
